HIERARCHY
ROOT Hips
{
	OFFSET -3.958830 18.904000 13.208200
	CHANNELS 6 Xposition Yposition Zposition Zrotation Yrotation Xrotation 
	JOINT LHipJoint
	{
		OFFSET 0.000000 0.000000 0.000000
		CHANNELS 3 Zrotation Yrotation Xrotation
		JOINT LeftUpLeg
		{
			OFFSET 1.800000 -1.400000 0.085000
			CHANNELS 3 Zrotation Yrotation Xrotation
			JOINT LeftLeg
			{
				OFFSET 2.215000 -6.000000 0.000000
				CHANNELS 3 Zrotation Yrotation Xrotation
				JOINT LeftFoot
				{
					OFFSET 2.500000 -6.900000 0.000000
					CHANNELS 3 Zrotation Yrotation Xrotation
					JOINT LeftToeBase
					{
						OFFSET 0.200000 -0.500000 1.950000
						CHANNELS 3 Zrotation Yrotation Xrotation
						End Site
						{
							OFFSET 0.000000 0.000000 0.000000
						}
					}
				}
			}
		}
	}
	JOINT RHipJoint
	{
		OFFSET 0.000000 0.000000 0.000000
		CHANNELS 3 Zrotation Yrotation Xrotation
		JOINT RightUpLeg
		{
			OFFSET -1.800000 -1.400000 0.085000
			CHANNELS 3 Zrotation Yrotation Xrotation
			JOINT RightLeg
			{
				OFFSET -2.215000 -6.000000 0.000000
				CHANNELS 3 Zrotation Yrotation Xrotation
				JOINT RightFoot
				{
					OFFSET -2.500000 -6.900000 0.000000
					CHANNELS 3 Zrotation Yrotation Xrotation
					JOINT RightToeBase
					{
						OFFSET -0.200000 -0.500000 1.950000
						CHANNELS 3 Zrotation Yrotation Xrotation
						End Site
						{
							OFFSET 0.000000 0.000000 0.000000
						}
					}
				}
			}
		}
	}
	JOINT LowerBack
	{
		OFFSET 0.000000 0.000000 0.000000
		CHANNELS 3 Zrotation Yrotation Xrotation
		JOINT Spine
		{
			OFFSET -0.087000 1.940000 -0.288900
			CHANNELS 3 Zrotation Yrotation Xrotation
			JOINT Spine1
			{
				OFFSET 0.000000 1.950000 0.060000
				CHANNELS 3 Zrotation Yrotation Xrotation
				JOINT Neck
				{
					OFFSET 0.000000 0.000000 0.000000
					CHANNELS 3 Zrotation Yrotation Xrotation
					JOINT Neck1
					{
						OFFSET 0.000000 1.600000 0.340000
						CHANNELS 3 Zrotation Yrotation Xrotation
						JOINT Head
						{
							OFFSET 0.000000 1.667000 -0.240000
							CHANNELS 3 Zrotation Yrotation Xrotation
							End Site
							{
								OFFSET 0.000000 0.000000 0.000000
							}
						}
					}
				}
				JOINT LeftShoulder
				{
					OFFSET 0.000000 0.000000 0.000000
					CHANNELS 3 Zrotation Yrotation Xrotation
					JOINT LeftArm
					{
						OFFSET 2.700000 1.550000 -0.730000
						CHANNELS 3 Zrotation Yrotation Xrotation
						JOINT LeftForeArm
						{
							OFFSET 5.450000 0.000000 0.000000
							CHANNELS 3 Zrotation Yrotation Xrotation
							JOINT LeftHand
							{
								OFFSET 3.450000 0.000000 0.000000
								CHANNELS 3 Zrotation Yrotation Xrotation
								JOINT LeftHandIndex1
								{
									OFFSET 0.750000 0.000000 0.000000
									CHANNELS 3 Zrotation Yrotation Xrotation
									End Site
									{
										OFFSET 0.000000 0.000000 0.000000
									}
								}
							}
						}
					}
				}
				JOINT RightShoulder
				{
					OFFSET 0.000000 0.000000 0.000000
					CHANNELS 3 Zrotation Yrotation Xrotation
					JOINT RightArm
					{
						OFFSET -2.700000 1.550000 -0.730000
						CHANNELS 3 Zrotation Yrotation Xrotation
						JOINT RightForeArm
						{
							OFFSET -5.450000 0.000000 0.000000
							CHANNELS 3 Zrotation Yrotation Xrotation
							JOINT RightHand
							{
								OFFSET -3.450000 0.000000 0.000000
								CHANNELS 3 Zrotation Yrotation Xrotation
								JOINT RightHandIndex1
								{
									OFFSET -0.750000 0.000000 0.000000
									CHANNELS 3 Zrotation Yrotation Xrotation
									End Site
									{
										OFFSET 0.000000 0.000000 0.000000
									}
								}
							}
						}
					}
				}
			}
		}
	}
}
MOTION
Frames: 14
Frame Time: 0.016667
-2.377620 16.548480 7.067480 -175.847677 26.563087 -177.000966 -14.922220 11.198572 5.058257 7.141372 -3.088283 -47.669803 -2.355862 9.727490 37.788991 0.104368 6.570780 2.042895 -0.523610 -0.964510 0.075160 18.508200 -11.607312 3.473513 9.370854 -2.159247 2.951171 0.877397 -5.729193 24.543177 -0.641533 -4.817741 2.749450 -0.751590 -0.041920 -0.026550 -3.863233 2.841580 -8.949263 7.657315 12.378657 12.277507 -3.978493 14.180675 -24.738914 -2.597637 5.636113 -15.481515 15.059604 -12.890755 54.211497 -3.116380 -4.717960 11.417830 6.049154 12.301644 4.177989 -54.821728 25.110010 -15.871925 -4.381870 -12.174343 -0.839087 -3.784491 1.981427 0.711940 -0.170280 0.104270 -0.293540 -5.880358 -6.593382 9.271366 80.970343 -19.329941 -16.266829 -0.947828 3.710199 0.933116 2.897896 -0.388947 -0.286700 0.048890 0.341540 -0.287900 
-2.270720 16.627950 6.681940 -172.072812 27.242202 -176.076654 -14.814035 11.455269 5.038658 7.367143 -2.568177 -47.053808 -4.420024 7.851699 27.231790 -0.094183 4.746530 2.665553 -0.469020 -0.924580 0.106030 18.541179 -11.522513 3.665112 11.097761 -1.392596 2.616353 0.406806 -5.711976 29.606039 -0.750102 -5.256935 2.580070 -0.758240 -0.096840 0.027810 -4.030098 2.328741 -9.105969 13.742688 11.580430 11.882220 -5.145267 14.937661 -25.120391 -2.007325 4.829441 -16.456052 15.261003 -12.003872 55.220453 -5.257090 -2.223170 13.695320 7.471741 14.270229 3.971339 -61.579884 26.502670 -17.321477 -4.251204 -15.652120 -0.689721 -3.751602 2.034374 0.693670 -0.174940 0.129070 -0.272800 -9.593427 -5.664560 10.299636 81.949816 -16.830588 -14.340993 6.018855 1.688615 0.798513 2.912230 -0.461649 -0.219700 -0.052220 0.297640 -0.287500 
-2.092580 16.673410 6.316790 -169.055420 31.521911 -174.079978 -14.536634 11.324370 4.898929 9.087006 -1.256035 -45.363837 -5.335746 6.436297 17.922564 -0.109666 3.569365 3.170194 -0.560330 -1.025060 0.012300 18.769396 -11.794216 3.866226 12.983710 0.460391 -0.060959 -2.374675 -4.264875 34.588223 -0.708138 -5.534990 2.532741 -0.817060 0.004830 -0.014460 -4.741891 3.290941 -9.015807 18.472014 13.367573 10.069175 -6.566625 16.992491 -24.562648 -3.782726 4.652415 -15.720690 15.396628 -11.941475 51.229276 -5.063720 -3.523550 19.498920 9.560864 16.405301 3.461786 -64.409175 24.376816 -15.486453 -13.536095 -13.086532 -0.201915 -3.749379 1.968110 0.576140 -0.111260 0.024650 -0.227680 -9.851344 -6.375863 9.963194 86.851821 -15.865484 -14.415052 -0.023971 5.622107 0.687799 2.931580 -0.565698 -0.239390 -0.059300 0.283310 -0.225750 
-1.971660 16.700810 5.968610 -167.174030 33.320310 -175.407984 -14.272422 11.496593 4.547551 8.752357 -1.206608 -41.458327 -4.011005 4.905192 12.846464 -0.205479 2.714127 3.500990 -0.400970 -0.883620 0.071960 18.954088 -12.009532 4.021412 13.115492 1.928184 -1.705116 -1.772244 -4.422421 38.121922 -0.790068 -5.886574 2.354457 -0.715450 -0.008350 -0.047410 -5.519130 3.566137 -8.818363 24.454712 13.077718 9.298856 -6.512892 17.449469 -19.494578 -3.971502 2.208155 -14.781224 11.244580 -10.359747 54.323763 -2.194370 -6.258730 19.018440 4.814919 13.093043 3.870767 -70.343368 20.923097 -14.725539 -14.433298 -14.096209 -0.372336 -3.663964 2.150825 0.568800 -0.186840 -0.002190 -0.158530 -4.319794 -2.000839 9.277029 83.208667 -11.295772 -11.433205 -2.292210 7.049114 0.473023 2.914634 -0.830314 -0.225760 -0.066310 0.202620 -0.196990 
-1.884050 16.649460 5.705200 -167.288749 30.078270 179.105377 -14.156600 11.600658 3.831538 6.164625 -1.675503 -36.130332 -2.978356 4.035032 11.522197 -0.280027 2.217061 3.751809 -0.195430 -0.525230 0.003380 19.125871 -12.122267 3.901706 11.555131 2.096548 -2.380085 3.439667 -7.333970 39.011368 -0.943360 -6.433904 2.203034 -0.476030 0.088550 -0.038010 -6.322055 3.485805 -8.180379 31.002804 9.528590 8.025417 -9.496240 13.992346 -4.200436 -0.049962 0.452395 -14.960933 4.801068 -7.757606 55.986623 0.453920 -8.410540 12.941340 -8.316112 -3.733117 7.196622 -69.380110 11.776699 -15.406705 -15.692506 -23.038850 -0.082118 -3.480181 2.714981 0.452880 -0.145030 -0.010410 -0.005050 4.960757 11.656749 9.772826 74.931633 -0.747177 -6.978714 -3.627988 7.268717 0.206212 2.755990 -1.138035 -0.159080 0.038340 0.117170 -0.073900 
-1.737230 16.573630 5.406640 -166.707576 30.273091 177.714543 -14.157634 11.438556 3.466550 6.384695 -1.703710 -33.478833 -3.021670 4.197627 12.895637 -0.309109 2.423191 3.752509 -0.223920 -0.491860 -0.117910 19.179220 -12.292246 3.861459 11.235492 2.858954 -6.571532 5.549934 -8.010666 37.343286 -0.786230 -6.261146 2.286252 -0.390830 0.272320 -0.017020 -6.589659 4.129880 -7.853189 32.153102 8.119432 6.987974 -9.778930 11.817312 3.021364 1.638805 1.259508 -14.350283 4.847672 -8.403156 48.736367 0.141530 -9.259950 10.471370 -11.069006 -10.555840 8.258300 -69.810881 3.213626 -13.282763 -19.467129 -30.960213 1.173134 -3.571879 2.954917 0.294560 0.005330 -0.137310 0.043780 5.772105 16.261234 9.499125 70.724071 7.321129 -3.300633 -3.505115 9.701253 -0.323572 2.620542 -1.275624 -0.185020 0.117550 0.164950 -0.007020 
-1.615920 16.506240 5.158260 -168.522734 30.544864 174.873248 -14.183577 11.525648 3.152181 4.855032 -2.096909 -30.095563 -1.660196 4.196689 16.138418 -0.355056 2.589643 3.734265 -0.142370 -0.324050 -0.171840 19.132856 -12.547581 3.808858 9.255230 3.539720 -11.890345 6.205688 -7.379395 32.813732 -0.507310 -5.460652 2.534172 -0.227000 0.394910 -0.001930 -6.624993 4.548846 -7.570009 29.763084 6.474989 7.437884 -9.553734 9.342591 9.021386 3.277010 2.175953 -14.079959 6.333530 -8.815155 45.159671 0.999450 -9.639010 7.759990 -11.743336 -16.641813 9.002213 -68.093304 -6.568155 -9.446795 -22.160260 -39.460763 2.824067 -3.646025 3.189228 0.154940 0.108210 -0.218560 0.111660 4.454271 20.735072 9.320635 65.516507 17.165618 1.720910 -2.041469 11.951595 -0.648480 2.507593 -1.419822 -0.181570 0.184310 0.156800 0.056710 
-1.480790 16.434400 4.930060 -172.169913 31.155878 170.336773 -14.343840 11.939912 2.995734 2.935765 -2.515471 -26.279066 -0.262873 4.635473 22.111014 -0.400942 3.330105 3.442214 -0.011980 -0.168620 -0.159500 18.927311 -12.465355 3.736633 6.256545 4.255018 -17.102505 5.766306 -6.234003 28.423659 -0.256758 -4.531372 2.769907 -0.069690 0.447520 0.061860 -6.137313 3.798136 -7.453072 23.676110 4.234705 10.090681 -7.512525 6.566833 14.429364 4.073044 2.444228 -14.724848 6.079371 -8.388467 44.004523 2.447610 -10.005700 3.588410 -10.250444 -24.306454 9.954237 -63.288509 -16.246924 -6.676022 -19.349004 -46.794791 2.101529 -3.692975 3.349251 0.120980 0.151910 -0.250000 0.135310 2.512040 27.335119 9.958351 57.157271 25.882781 4.640214 -2.400413 15.171576 -1.031291 2.350928 -1.493854 -0.166360 0.218320 0.188170 0.064450 
-1.332960 16.370350 4.683560 -175.019649 30.025980 165.740697 -14.581806 12.478807 2.992981 0.218401 -2.952624 -22.048956 2.021858 4.591611 27.329239 -0.514622 4.209531 3.107319 -0.012300 -0.137140 -0.204220 18.656344 -12.125693 3.620471 3.055760 4.149802 -20.552964 6.068873 -5.502658 23.605388 -0.047224 -3.684343 3.023554 0.050800 0.537210 0.040600 -5.174846 2.278310 -7.540525 16.559106 2.062648 14.065566 -5.128935 4.055589 18.142300 4.203707 4.040492 -15.791252 8.392957 -9.447393 44.220216 4.957610 -10.690360 -1.541640 -9.007040 -30.813279 10.033707 -51.751480 -23.507207 -5.477404 -20.543097 -57.022140 3.974237 -3.741280 3.210019 0.199020 0.186770 -0.276790 0.093860 1.535209 32.077111 10.921120 46.582379 30.994353 2.989958 -5.459128 22.360754 -2.259096 2.076992 -1.345687 -0.279010 0.394260 0.320570 0.028550 
-1.254480 16.293090 4.440710 -174.839729 30.750277 164.001053 -14.753873 12.900918 3.078258 -0.280181 -3.567575 -20.597016 3.928501 4.266854 31.812848 -0.538148 4.959514 2.788435 0.128770 0.042370 -0.145600 18.487029 -11.610362 3.685925 3.050074 4.805992 -25.681554 2.401948 -3.815357 20.884680 0.069043 -2.750853 3.287603 0.198910 0.521000 0.071500 -4.501207 0.741895 -7.785948 14.088124 -0.813186 18.268885 -4.381503 1.346003 19.998367 4.189037 4.890078 -16.381765 8.717166 -10.359778 43.944515 6.684820 -11.420560 -7.185090 -9.169219 -35.970089 8.216176 -35.593498 -29.191885 -6.074605 -13.585932 -60.165306 2.531536 -3.598109 3.142172 0.264240 0.163540 -0.220040 0.104940 1.644041 35.574796 11.227284 34.059863 34.871331 -0.667754 -9.941866 27.748212 -3.643208 1.865029 -1.313647 -0.278080 0.467940 0.322840 0.019010 
-1.163940 16.203210 4.184040 -174.777817 34.077415 163.843461 -14.899335 13.060183 3.012936 1.263696 -3.828955 -19.139604 2.623153 5.376312 35.928945 -0.300541 5.771261 2.494543 0.172860 0.160720 -0.122600 18.374912 -10.937562 4.117315 3.809659 6.082932 -31.219327 3.517646 -2.479656 10.315690 0.186515 -1.524714 3.757858 0.211200 0.462160 0.056140 -4.133398 -0.236181 -8.149390 12.594799 -2.393428 22.040136 -3.850074 -0.076550 18.191628 3.498510 6.236677 -16.986194 10.808826 -10.791762 43.593598 7.349360 -10.318660 -8.912260 -9.933521 -38.961176 7.530368 -22.627294 -27.343628 -9.581509 2.120593 -66.274359 -5.244253 -3.439266 3.069116 0.265690 0.131500 -0.140240 0.130430 3.247876 36.975978 10.591382 26.100965 36.744569 -6.442134 -14.325138 36.557450 -5.942228 1.720320 -1.281251 -0.220380 0.468320 0.253280 0.040490 
-1.111350 16.145170 3.963510 -173.854820 36.685136 165.285365 -15.054052 13.068956 2.942208 3.081134 -4.212001 -19.042022 1.091713 6.434713 38.119302 -0.104032 6.292654 2.289930 0.140490 0.076660 -0.075950 18.293114 -10.174644 4.641918 4.784716 8.103455 -37.448080 3.465297 -1.387376 1.785184 0.228521 -0.857135 3.978673 0.096430 0.339720 0.072680 -3.794421 -1.066801 -8.561691 12.245669 -3.380620 26.347436 -3.192650 -0.410563 13.588090 2.895060 7.822022 -18.143286 13.260763 -13.342148 42.763767 7.860770 -11.769090 -8.600650 -11.639542 -42.049702 7.737845 -12.894506 -24.930754 -11.752486 30.385907 -64.853673 -19.786624 -3.420441 2.765560 0.316770 0.051090 -0.076610 0.094190 5.258079 39.135148 9.340593 18.209099 33.612666 -12.024738 -18.081223 45.867393 -8.296253 1.728860 -1.269995 -0.170300 0.347660 0.218290 0.011020 
-1.071910 16.162500 3.727960 -172.225674 38.495007 166.936069 -15.178909 13.037190 2.718404 5.035377 -3.967001 -17.823439 -0.660707 7.404797 38.307390 -0.142798 6.673183 2.100851 0.105920 -0.037130 -0.054290 18.281854 -9.606628 4.989247 8.689165 9.768707 -40.923383 -4.446008 -1.017819 -8.354178 0.165134 -0.826092 3.929282 0.039340 0.298590 0.121430 -3.669478 -1.645152 -8.765111 13.620966 -4.623421 29.364131 -2.372671 -0.893567 10.065485 2.790299 8.656305 -17.265299 14.523230 -14.052435 41.654411 10.562120 -12.448960 -11.954270 -9.616902 -43.841884 7.157421 -7.152167 -26.534498 -11.428142 39.049646 -60.720619 -22.181193 -3.533258 2.678652 0.448880 -0.002930 -0.038810 0.027280 3.313048 39.968368 6.202061 11.819947 31.955271 -12.956108 -24.606674 49.028143 -10.881889 1.840746 -1.138889 -0.202860 0.315320 0.294170 -0.049670 
-1.073530 16.259910 3.531440 -168.793755 44.326822 171.016318 -15.274499 12.752131 2.346875 9.360125 -2.477599 -16.318934 -4.574496 9.295755 35.375637 -0.144616 6.756691 2.023797 0.172460 0.016260 0.013320 18.344141 -8.984776 5.752261 17.115803 15.295879 -45.041516 -15.397121 -1.592063 -6.441604 0.049233 -0.992139 3.802324 0.047480 0.198980 0.141400 -3.953917 -1.647212 -8.950390 19.356612 -5.961726 32.287353 -3.953568 0.621082 6.712171 2.993483 8.419183 -15.781701 13.319162 -15.168671 38.826617 11.612050 -13.187280 -16.087210 -7.300606 -44.165766 4.948770 3.088432 -27.690577 -11.956298 44.883451 -56.722699 -22.141429 -3.546008 2.710556 0.511720 -0.082930 0.029080 0.019250 0.399280 40.503471 4.223228 5.268267 30.061022 -13.624127 -28.509352 49.345001 -11.912606 1.999852 -1.194822 -0.166260 0.266550 0.255470 -0.071470 
